<?xml version="1.0" encoding="UTF-8"?>
<svg xmlns="http://www.w3.org/2000/svg" xmlns:xlink="http://www.w3.org/1999/xlink" width="128pt" height="128pt" viewBox="0 0 128 128" version="1.1">
<g id="surface19288147">
<path style=" stroke:none;fill-rule:nonzero;fill:rgb(100%,100%,100%);fill-opacity:1;" d="M 56 21.902344 C 43.300781 21.902344 33 32.199219 33 44.902344 C 33 46.601562 34.300781 47.902344 36 47.902344 L 41.398438 47.902344 C 52.902344 47.902344 64.601562 47.902344 73 40.402344 L 73 40.5 C 73.398438 40.101562 73.800781 39.800781 74.097656 39.402344 C 75.199219 38.199219 77.101562 38 78.300781 39.097656 C 79.601562 40.199219 79.699219 42.199219 78.5 43.5 L 77.097656 44.902344 C 75.800781 46.199219 76.300781 48.398438 78 49.101562 C 79 49.5 80.097656 49.699219 81.199219 49.800781 C 82.699219 50 83.898438 51.199219 83.898438 52.800781 L 83.898438 59.601562 C 84 70.101562 76 79.199219 65.398438 80 C 53.800781 80.800781 44.101562 71.601562 44 60.101562 C 44 58.5 42.800781 57.101562 41.199219 57 C 39.5 56.898438 38 58.300781 38 60 C 38 74.300781 49.699219 86 64 86 C 77.898438 86 89.300781 75.101562 90 61.300781 L 90 43 C 90 35.800781 84.597656 29.898438 77.597656 29.101562 L 77.199219 28.5 C 74.300781 24.398438 69.5 21.902344 64.5 21.902344 Z M 64 91 C 47.601562 91 32.402344 99.898438 24.300781 114.097656 C 23.5 115.5 24 117.398438 25.398438 118.199219 C 25.902344 118.5 26.398438 118.597656 26.902344 118.597656 C 27.902344 118.597656 29 118.097656 29.5 117.097656 C 36.601562 104.699219 49.800781 97 64 97 C 78.199219 97 91.398438 104.699219 98.5 117.097656 C 99.300781 118.5 101.199219 119 102.601562 118.199219 C 104 117.398438 104.5 115.5 103.699219 114.097656 C 95.597656 99.898438 80.398438 91 64 91 Z M 64 91 "/>
</g>
</svg>
